<svg width="222" height="45" viewBox="0 0 222 45" fill="none" xmlns="http://www.w3.org/2000/svg">
<path d="M17.7266 34.9609C16.8906 35.7969 16.043 36.2148 15.1836 36.2148C14.3242 36.2227 13.4648 35.8008 12.6055 34.9492L5.1875 27.543C4.32812 26.6836 3.90234 25.8242 3.91016 24.9648C3.91797 24.1055 4.33984 23.2578 5.17578 22.4219L16.6367 10.9844C16.9258 10.6953 17.1875 10.4844 17.4219 10.3516C17.6641 10.2188 17.9258 10.1367 18.207 10.1055C18.4883 10.0664 18.832 10.0469 19.2383 10.0469H23.7031C24.1172 10.0469 24.4531 10.0859 24.7109 10.1641C24.9766 10.2344 25.2188 10.3594 25.4375 10.5391C25.6562 10.7109 25.9141 10.9414 26.2109 11.2305L28.9062 13.9258C29.2031 14.2227 29.4375 14.4844 29.6094 14.7109C29.7812 14.9297 29.9023 15.1719 29.9727 15.4375C30.0508 15.6953 30.0898 16.0312 30.0898 16.4453V20.8984C30.0898 21.3125 30.0703 21.6602 30.0312 21.9414C30 22.2148 29.918 22.4727 29.7852 22.7148C29.6602 22.9492 29.4492 23.2148 29.1523 23.5117L17.7266 34.9609ZM21.7344 19.4219C22.1875 19.4219 22.5664 19.2656 22.8711 18.9531C23.1836 18.6406 23.3398 18.2617 23.3398 17.8164C23.3398 17.3633 23.1836 16.9844 22.8711 16.6797C22.5664 16.3672 22.1875 16.2109 21.7344 16.2109C21.2734 16.2109 20.8906 16.3672 20.5859 16.6797C20.2812 16.9844 20.1289 17.3633 20.1289 17.8164C20.1289 18.2617 20.2812 18.6406 20.5859 18.9531C20.8906 19.2656 21.2734 19.4219 21.7344 19.4219Z" fill="#E5C67C"/>
<path d="M42.772 12.6H49.936C52.6 12.6 54.664 13.272 56.128 14.616C57.616 15.936 58.36 17.904 58.36 20.52C58.36 22.392 57.952 23.94 57.136 25.164C56.32 26.388 55.276 27.288 54.004 27.864C52.732 28.416 51.412 28.692 50.044 28.692H47.74V36H42.772V12.6ZM49.468 26.388C50.668 26.388 51.556 25.98 52.132 25.164C52.708 24.324 52.996 22.848 52.996 20.736C52.996 18.6 52.708 17.1 52.132 16.236C51.556 15.372 50.668 14.94 49.468 14.94H47.74V26.388H49.468ZM61.3553 18H64.7393L65.5313 21.024H65.6753C65.6753 20.88 65.7713 20.532 65.9633 19.98C66.1553 19.404 66.5033 18.864 67.0073 18.36C67.5353 17.856 68.2313 17.604 69.0953 17.604C69.5753 17.604 70.1153 17.676 70.7153 17.82C71.3393 17.964 71.7473 18.06 71.9393 18.108L71.5073 21.456C71.3153 21.408 70.8833 21.312 70.2113 21.168C69.5633 21.024 68.9993 20.952 68.5193 20.952C67.9673 20.952 67.5113 21.12 67.1513 21.456C66.8153 21.768 66.5633 22.104 66.3953 22.464C66.2273 22.824 66.1433 23.04 66.1433 23.112V36H61.3553V18ZM80.9328 36.396C78.2688 36.396 76.1928 35.664 74.7048 34.2C73.2408 32.712 72.5088 30.42 72.5088 27.324C72.5088 24.204 73.2288 21.816 74.6688 20.16C76.1088 18.48 78.0528 17.64 80.5008 17.64C82.7328 17.64 84.4608 18.348 85.6848 19.764C86.9328 21.156 87.5568 23.16 87.5568 25.776C87.5568 26.376 87.5088 26.88 87.4128 27.288C87.3408 27.696 87.2928 27.948 87.2688 28.044H77.5848C77.6088 30.204 77.9208 31.74 78.5208 32.652C79.1448 33.54 80.1408 33.984 81.5088 33.984C82.3248 33.984 83.0448 33.816 83.6688 33.48C84.2928 33.12 84.7848 32.736 85.1448 32.328C85.5048 31.896 85.6848 31.656 85.6848 31.608L87.3048 32.868C87.3048 32.964 87.0528 33.312 86.5488 33.912C86.0688 34.512 85.3488 35.076 84.3888 35.604C83.4528 36.132 82.3008 36.396 80.9328 36.396ZM83.0928 25.704V24.876C83.0928 23.052 82.9008 21.78 82.5168 21.06C82.1328 20.316 81.4608 19.944 80.5008 19.944C79.8288 19.944 79.2888 20.112 78.8808 20.448C78.4968 20.784 78.1968 21.372 77.9808 22.212C77.7648 23.028 77.6328 24.192 77.5848 25.704H83.0928ZM98.1276 36.396C95.3676 36.396 93.2436 35.604 91.7556 34.02C90.2916 32.436 89.5596 30.132 89.5596 27.108C89.5596 24.18 90.3276 21.864 91.8636 20.16C93.3996 18.456 95.5236 17.604 98.2356 17.604C98.9796 17.604 99.7356 17.712 100.504 17.928C101.296 18.12 101.956 18.336 102.484 18.576C103.012 18.792 103.348 18.936 103.492 19.008L103.024 21.312C102.904 21.24 102.604 21.108 102.124 20.916C101.644 20.7 101.092 20.496 100.468 20.304C99.8436 20.112 99.2796 20.016 98.7756 20.016C97.8636 20.016 97.1196 20.208 96.5436 20.592C95.9676 20.976 95.5236 21.684 95.2116 22.716C94.8996 23.724 94.7436 25.164 94.7436 27.036C94.7436 29.7 95.0796 31.524 95.7516 32.508C96.4236 33.492 97.3836 33.984 98.6316 33.984C99.4716 33.984 100.192 33.804 100.792 33.444C101.416 33.06 101.896 32.664 102.232 32.256C102.568 31.824 102.736 31.572 102.736 31.5L104.428 32.58C104.428 32.724 104.212 33.12 103.78 33.768C103.348 34.392 102.664 34.992 101.728 35.568C100.792 36.12 99.5916 36.396 98.1276 36.396ZM109.154 15.3C108.434 15.3 107.798 15.06 107.246 14.58C106.694 14.028 106.418 13.344 106.418 12.528C106.418 11.736 106.694 11.064 107.246 10.512C107.75 10.032 108.386 9.792 109.154 9.792C109.898 9.792 110.51 10.02 110.99 10.476C111.518 11.028 111.782 11.712 111.782 12.528C111.782 13.368 111.518 14.064 110.99 14.616C110.462 15.072 109.85 15.3 109.154 15.3ZM106.742 36V18H111.53V36H106.742ZM116.712 20.772H115.02V18.612L116.712 18.108V15.444C116.712 13.26 117.204 11.58 118.188 10.404C119.172 9.228 120.84 8.64 123.191 8.64C124.728 8.64 126.324 9.24 127.98 10.44C128.484 10.008 129.096 9.792 129.816 9.792C130.56 9.792 131.172 10.02 131.652 10.476C132.18 11.028 132.444 11.712 132.444 12.528C132.444 13.368 132.18 14.064 131.652 14.616C131.124 15.072 130.512 15.3 129.816 15.3C129.096 15.3 128.46 15.06 127.908 14.58C127.356 14.028 127.08 13.344 127.08 12.528V12.24C125.976 11.496 124.992 11.124 124.128 11.124C123.432 11.124 122.892 11.256 122.508 11.52C122.148 11.784 121.884 12.264 121.716 12.96C121.572 13.632 121.5 14.64 121.5 15.984V18H126.072V20.772H121.5V36H116.712V20.772ZM127.404 36V18H132.191V36H127.404ZM144.007 36.396C141.247 36.396 139.123 35.604 137.635 34.02C136.171 32.436 135.439 30.132 135.439 27.108C135.439 24.18 136.207 21.864 137.743 20.16C139.279 18.456 141.403 17.604 144.115 17.604C144.859 17.604 145.615 17.712 146.383 17.928C147.175 18.12 147.835 18.336 148.363 18.576C148.891 18.792 149.227 18.936 149.371 19.008L148.903 21.312C148.783 21.24 148.483 21.108 148.003 20.916C147.523 20.7 146.971 20.496 146.347 20.304C145.723 20.112 145.159 20.016 144.655 20.016C143.743 20.016 142.999 20.208 142.423 20.592C141.847 20.976 141.403 21.684 141.091 22.716C140.779 23.724 140.623 25.164 140.623 27.036C140.623 29.7 140.959 31.524 141.631 32.508C142.303 33.492 143.263 33.984 144.511 33.984C145.351 33.984 146.071 33.804 146.671 33.444C147.295 33.06 147.775 32.664 148.111 32.256C148.447 31.824 148.615 31.572 148.615 31.5L150.307 32.58C150.307 32.724 150.091 33.12 149.659 33.768C149.227 34.392 148.543 34.992 147.607 35.568C146.671 36.12 145.471 36.396 144.007 36.396ZM156.977 36.396C155.297 36.396 153.953 35.976 152.945 35.136C151.937 34.296 151.433 33.144 151.433 31.68C151.433 29.568 152.417 28.044 154.385 27.108C156.377 26.148 158.693 25.56 161.333 25.344V24.3C161.333 22.668 161.105 21.552 160.649 20.952C160.193 20.328 159.425 20.016 158.345 20.016C157.841 20.016 157.265 20.112 156.617 20.304C155.993 20.496 155.441 20.7 154.961 20.916C154.505 21.132 154.205 21.276 154.061 21.348L153.593 19.044C153.737 18.972 154.073 18.828 154.601 18.612C155.153 18.372 155.837 18.144 156.653 17.928C157.493 17.712 158.333 17.604 159.173 17.604C161.429 17.604 163.145 18.084 164.321 19.044C165.521 19.98 166.121 21.6 166.121 23.904V32.076C166.121 33.348 166.373 33.984 166.877 33.984C167.069 33.984 167.297 33.948 167.561 33.876C167.825 33.804 168.005 33.756 168.101 33.732L168.245 35.604C168.125 35.652 167.837 35.736 167.381 35.856C166.925 35.976 166.397 36.096 165.797 36.216C165.221 36.336 164.705 36.396 164.249 36.396C163.553 36.396 163.013 36.228 162.629 35.892C162.245 35.532 161.993 34.956 161.873 34.164H161.693C161.693 34.236 161.525 34.464 161.189 34.848C160.877 35.208 160.373 35.556 159.677 35.892C158.981 36.228 158.081 36.396 156.977 36.396ZM158.561 33.984C159.137 33.984 159.629 33.84 160.037 33.552C160.469 33.264 160.793 32.952 161.009 32.616C161.225 32.256 161.333 32.052 161.333 32.004V27.252C159.725 27.42 158.501 27.804 157.661 28.404C156.845 28.98 156.437 29.868 156.437 31.068C156.437 32.028 156.629 32.76 157.013 33.264C157.397 33.744 157.913 33.984 158.561 33.984ZM178.778 36L186.554 12.6H192.062L199.334 36H194.078L192.062 29.448H183.926L181.802 36H178.778ZM184.646 27.18H191.378L188.174 16.164H188.102L184.646 27.18ZM204.856 15.516L202.804 15.192L205.324 9.72L209.212 10.836L204.856 15.516ZM202.156 36V18H206.944V36H202.156ZM213.998 27.72L212.486 11.196V9H217.958V11.196L216.41 27.72H213.998ZM215.258 36.576C214.442 36.576 213.77 36.324 213.242 35.82C212.666 35.244 212.378 34.536 212.378 33.696C212.378 32.856 212.666 32.136 213.242 31.536C213.77 31.032 214.442 30.78 215.258 30.78C216.05 30.78 216.71 31.032 217.238 31.536C217.814 32.136 218.102 32.856 218.102 33.696C218.102 34.536 217.814 35.244 217.238 35.82C216.71 36.324 216.05 36.576 215.258 36.576Z" fill="#FAFAFA"/>
</svg>
