<svg width="222" height="44" viewBox="0 0 222 44" fill="none" xmlns="http://www.w3.org/2000/svg">
<path d="M16.7266 34.4609C15.8906 35.2969 15.043 35.7148 14.1836 35.7148C13.3242 35.7227 12.4648 35.3008 11.6055 34.4492L4.1875 27.043C3.32812 26.1836 2.90234 25.3242 2.91016 24.4648C2.91797 23.6055 3.33984 22.7578 4.17578 21.9219L15.6367 10.4844C15.9258 10.1953 16.1875 9.98438 16.4219 9.85156C16.6641 9.71875 16.9258 9.63672 17.207 9.60547C17.4883 9.56641 17.832 9.54688 18.2383 9.54688H22.7031C23.1172 9.54688 23.4531 9.58594 23.7109 9.66406C23.9766 9.73438 24.2188 9.85938 24.4375 10.0391C24.6562 10.2109 24.9141 10.4414 25.2109 10.7305L27.9062 13.4258C28.2031 13.7227 28.4375 13.9844 28.6094 14.2109C28.7812 14.4297 28.9023 14.6719 28.9727 14.9375C29.0508 15.1953 29.0898 15.5312 29.0898 15.9453V20.3984C29.0898 20.8125 29.0703 21.1602 29.0312 21.4414C29 21.7148 28.918 21.9727 28.7852 22.2148C28.6602 22.4492 28.4492 22.7148 28.1523 23.0117L16.7266 34.4609ZM20.7344 18.9219C21.1875 18.9219 21.5664 18.7656 21.8711 18.4531C22.1836 18.1406 22.3398 17.7617 22.3398 17.3164C22.3398 16.8633 22.1836 16.4844 21.8711 16.1797C21.5664 15.8672 21.1875 15.7109 20.7344 15.7109C20.2734 15.7109 19.8906 15.8672 19.5859 16.1797C19.2812 16.4844 19.1289 16.8633 19.1289 17.3164C19.1289 17.7617 19.2812 18.1406 19.5859 18.4531C19.8906 18.7656 20.2734 18.9219 20.7344 18.9219Z" fill="#E5C67C"/>
<path d="M42.3066 25.834V22.5293H48.8105C50.5098 22.5293 51.8281 22.0898 52.7656 21.2109C53.7148 20.3203 54.1895 19.0898 54.1895 17.5195V17.4844C54.1895 15.8906 53.7148 14.6543 52.7656 13.7754C51.8281 12.8965 50.5098 12.457 48.8105 12.457H42.3066V9.13477H49.7949C51.459 9.13477 52.918 9.48633 54.1719 10.1895C55.4375 10.8809 56.4277 11.8535 57.1426 13.1074C57.8574 14.3496 58.2148 15.7969 58.2148 17.4492V17.4844C58.2148 19.1367 57.8574 20.5957 57.1426 21.8613C56.4277 23.1152 55.4375 24.0938 54.1719 24.7969C52.918 25.4883 51.459 25.834 49.7949 25.834H42.3066ZM40.3379 34.5V9.13477H44.2754V34.5H40.3379ZM61.2031 34.5V16.0078H65.0352V19.1719H65.1055C65.3984 18.082 65.9199 17.2266 66.6699 16.6055C67.4199 15.9727 68.3223 15.6562 69.377 15.6562C69.6582 15.6562 69.9102 15.6738 70.1328 15.709C70.3672 15.7324 70.5547 15.7617 70.6953 15.7969V19.3301C70.543 19.2715 70.3145 19.2246 70.0098 19.1895C69.7051 19.1426 69.3652 19.1191 68.9902 19.1191C68.1816 19.1191 67.4785 19.2949 66.8809 19.6465C66.2832 19.9863 65.8262 20.4844 65.5098 21.1406C65.1934 21.7852 65.0352 22.5645 65.0352 23.4785V34.5H61.2031ZM80.1875 34.8691C78.3828 34.8691 76.8242 34.4824 75.5117 33.709C74.2109 32.9238 73.209 31.8164 72.5059 30.3867C71.8145 28.9453 71.4688 27.252 71.4688 25.3066V25.2891C71.4688 23.3672 71.8203 21.6855 72.5234 20.2441C73.2266 18.791 74.2168 17.666 75.4941 16.8691C76.7715 16.0605 78.2715 15.6562 79.9941 15.6562C81.7285 15.6562 83.2168 16.043 84.459 16.8164C85.7129 17.5781 86.6797 18.6621 87.3594 20.0684C88.0391 21.4629 88.3789 23.0859 88.3789 24.9375V26.2207H73.3496V23.5312H86.5332L84.6523 26.0449V24.5684C84.6523 23.2676 84.4531 22.1895 84.0547 21.334C83.668 20.4668 83.123 19.8223 82.4199 19.4004C81.7285 18.9785 80.9258 18.7676 80.0117 18.7676C79.1094 18.7676 78.3008 18.9902 77.5859 19.4355C76.8711 19.8809 76.3086 20.5371 75.8984 21.4043C75.4883 22.2598 75.2832 23.3145 75.2832 24.5684V26.0449C75.2832 27.2402 75.4824 28.2656 75.8809 29.1211C76.291 29.9648 76.8711 30.6152 77.6211 31.0723C78.3711 31.5176 79.2559 31.7402 80.2754 31.7402C81.0254 31.7402 81.6875 31.6289 82.2617 31.4062C82.8359 31.1719 83.3105 30.8672 83.6855 30.4922C84.0723 30.1055 84.3418 29.6777 84.4941 29.209L84.5469 29.0684H88.168L88.1328 29.2617C87.9805 29.9883 87.6934 30.6855 87.2715 31.3535C86.8496 32.0215 86.2988 32.625 85.6191 33.1641C84.9512 33.6914 84.1602 34.1074 83.2461 34.4121C82.332 34.7168 81.3125 34.8691 80.1875 34.8691ZM99.2598 34.8691C97.4668 34.8691 95.9082 34.4766 94.584 33.6914C93.2715 32.9062 92.2578 31.793 91.543 30.3516C90.8398 28.9102 90.4883 27.2051 90.4883 25.2363V25.2188C90.4883 23.2617 90.8457 21.5684 91.5605 20.1387C92.2871 18.709 93.3066 17.6074 94.6191 16.834C95.9316 16.0488 97.4668 15.6562 99.2246 15.6562C100.807 15.6562 102.172 15.9609 103.32 16.5703C104.48 17.168 105.389 17.9648 106.045 18.9609C106.701 19.957 107.082 21.0352 107.188 22.1953L107.205 22.3359H103.566L103.531 22.1777C103.332 21.2754 102.875 20.4961 102.16 19.8398C101.457 19.1719 100.484 18.8379 99.2422 18.8379C98.2695 18.8379 97.4141 19.1016 96.6758 19.6289C95.9492 20.1445 95.3809 20.8828 94.9707 21.8438C94.5723 22.8047 94.373 23.9414 94.373 25.2539V25.2715C94.373 26.6191 94.5781 27.7734 94.9883 28.7344C95.3984 29.6836 95.9668 30.4102 96.6934 30.9141C97.4316 31.418 98.293 31.6699 99.2773 31.6699C100.449 31.6699 101.393 31.3652 102.107 30.7559C102.834 30.1348 103.314 29.3262 103.549 28.3301L103.566 28.1895H107.223V28.3125C107.082 29.543 106.66 30.6562 105.957 31.6523C105.266 32.6367 104.346 33.4219 103.197 34.0078C102.061 34.582 100.748 34.8691 99.2598 34.8691ZM110.088 34.5V16.0078H113.92V34.5H110.088ZM112.004 13.1602C111.395 13.1602 110.873 12.9492 110.439 12.5273C110.006 12.0937 109.789 11.5781 109.789 10.9805C109.789 10.3594 110.006 9.83789 110.439 9.41602C110.873 8.99414 111.395 8.7832 112.004 8.7832C112.625 8.7832 113.146 8.99414 113.568 9.41602C114.002 9.83789 114.219 10.3594 114.219 10.9805C114.219 11.5781 114.002 12.0937 113.568 12.5273C113.146 12.9492 112.625 13.1602 112.004 13.1602ZM118.93 34.5V19.0312H116.381V16.0078H118.93V14.0391C118.93 12.8438 119.123 11.8594 119.51 11.0859C119.896 10.3008 120.488 9.7207 121.285 9.3457C122.094 8.95898 123.125 8.76562 124.379 8.76562C124.766 8.76562 125.152 8.7832 125.539 8.81836C125.938 8.8418 126.26 8.87695 126.506 8.92383V11.7363C126.33 11.7129 126.125 11.6953 125.891 11.6836C125.656 11.6719 125.422 11.666 125.188 11.666C124.344 11.666 123.717 11.8711 123.307 12.2812C122.896 12.6797 122.691 13.2891 122.691 14.1094V16.0078H126.436V19.0312H122.762V34.5H118.93ZM129.6 34.5V16.0078H133.432V34.5H129.6ZM131.516 13.1602C130.906 13.1602 130.385 12.9492 129.951 12.5273C129.518 12.0937 129.301 11.5781 129.301 10.9805C129.301 10.3594 129.518 9.83789 129.951 9.41602C130.385 8.99414 130.906 8.7832 131.516 8.7832C132.137 8.7832 132.658 8.99414 133.08 9.41602C133.514 9.83789 133.73 10.3594 133.73 10.9805C133.73 11.5781 133.514 12.0937 133.08 12.5273C132.658 12.9492 132.137 13.1602 131.516 13.1602ZM145.279 34.8691C143.486 34.8691 141.928 34.4766 140.604 33.6914C139.291 32.9062 138.277 31.793 137.562 30.3516C136.859 28.9102 136.508 27.2051 136.508 25.2363V25.2188C136.508 23.2617 136.865 21.5684 137.58 20.1387C138.307 18.709 139.326 17.6074 140.639 16.834C141.951 16.0488 143.486 15.6562 145.244 15.6562C146.826 15.6562 148.191 15.9609 149.34 16.5703C150.5 17.168 151.408 17.9648 152.064 18.9609C152.721 19.957 153.102 21.0352 153.207 22.1953L153.225 22.3359H149.586L149.551 22.1777C149.352 21.2754 148.895 20.4961 148.18 19.8398C147.477 19.1719 146.504 18.8379 145.262 18.8379C144.289 18.8379 143.434 19.1016 142.695 19.6289C141.969 20.1445 141.4 20.8828 140.99 21.8438C140.592 22.8047 140.393 23.9414 140.393 25.2539V25.2715C140.393 26.6191 140.598 27.7734 141.008 28.7344C141.418 29.6836 141.986 30.4102 142.713 30.9141C143.451 31.418 144.312 31.6699 145.297 31.6699C146.469 31.6699 147.412 31.3652 148.127 30.7559C148.854 30.1348 149.334 29.3262 149.568 28.3301L149.586 28.1895H153.242V28.3125C153.102 29.543 152.68 30.6562 151.977 31.6523C151.285 32.6367 150.365 33.4219 149.217 34.0078C148.08 34.582 146.768 34.8691 145.279 34.8691ZM161.398 34.834C160.168 34.834 159.09 34.5996 158.164 34.1309C157.238 33.6621 156.518 33.0059 156.002 32.1621C155.486 31.3184 155.229 30.3457 155.229 29.2441V29.209C155.229 28.1309 155.498 27.2051 156.037 26.4316C156.576 25.6465 157.355 25.0254 158.375 24.5684C159.406 24.1113 160.648 23.8418 162.102 23.7598L169.098 23.3379V26.0098L162.611 26.4141C161.475 26.4844 160.596 26.7598 159.975 27.2402C159.365 27.709 159.061 28.3359 159.061 29.1211V29.1562C159.061 29.9648 159.365 30.6035 159.975 31.0723C160.596 31.541 161.416 31.7754 162.436 31.7754C163.326 31.7754 164.123 31.5938 164.826 31.2305C165.541 30.8672 166.104 30.3691 166.514 29.7363C166.924 29.0918 167.129 28.3711 167.129 27.5742V22.0723C167.129 21.0527 166.812 20.2559 166.18 19.6816C165.547 19.0957 164.639 18.8027 163.455 18.8027C162.365 18.8027 161.486 19.0371 160.818 19.5059C160.162 19.9746 159.752 20.5781 159.588 21.3164L159.553 21.4746H155.967L155.984 21.2812C156.078 20.2148 156.436 19.2598 157.057 18.416C157.678 17.5605 158.539 16.8867 159.641 16.3945C160.742 15.9023 162.049 15.6562 163.561 15.6562C165.072 15.6562 166.379 15.9082 167.48 16.4121C168.582 16.916 169.438 17.625 170.047 18.5391C170.656 19.4531 170.961 20.5254 170.961 21.7559V34.5H167.129V31.582H167.059C166.695 32.25 166.227 32.8301 165.652 33.3223C165.078 33.8027 164.428 34.1777 163.701 34.4473C162.986 34.7051 162.219 34.834 161.398 34.834ZM180.488 34.5L189.717 9.13477H192.916V13.3359H191.809L184.637 34.5H180.488ZM184.971 27.6445L186.113 24.4805H197.574L198.717 27.6445H184.971ZM199.051 34.5L191.896 13.3359V9.13477H193.988L203.199 34.5H199.051ZM205.678 34.5V16.0078H209.51V34.5H205.678ZM208.578 13.916H205.836L208.912 8.37891H212.604L208.578 13.916ZM214.977 26.0449L214.695 9.13477H218.633L218.334 26.0449H214.977ZM216.664 34.6934C216.008 34.6934 215.457 34.4766 215.012 34.043C214.566 33.5977 214.344 33.0527 214.344 32.4082C214.344 31.7637 214.566 31.2246 215.012 30.791C215.457 30.3457 216.008 30.123 216.664 30.123C217.32 30.123 217.871 30.3457 218.316 30.791C218.762 31.2246 218.984 31.7637 218.984 32.4082C218.984 33.0527 218.762 33.5977 218.316 34.043C217.871 34.4766 217.32 34.6934 216.664 34.6934Z" fill="#FAFAFA"/>
</svg>
